<svg width="100" height="144" viewBox="0 0 100 144" fill="none" xmlns="http://www.w3.org/2000/svg">
<path d="M0.5875 47.1958C0 33.4875 6.4625 19.975 16.45 11.1625C26.0458 2.74167 39.1667 0 51.1125 0C65.6042 0 79.3125 4.89584 88.125 16.2542C95.5667 24.8708 99.2875 36.425 99.2875 47.7833C99.2875 67.7583 90.0833 77.3542 73.4375 91.8458L42.3 118.675H96.35V143.742H0V118.675L59.7292 68.15C68.7375 60.5125 71.8708 53.4625 71.8708 47.3917C71.8708 42.3 70.3042 37.2083 66.975 33.0958C62.6667 27.8083 56.5958 25.0667 49.5458 25.0667C44.0625 25.0667 38.775 27.2208 34.8583 30.9417C30.55 35.0542 27.8083 41.125 28.0042 47.1958H0.5875Z" fill="url(#paint0_linear_447_152)"/>
<defs>
<linearGradient id="paint0_linear_447_152" x1="48.6088" y1="-65.0784" x2="48.6088" y2="165.23" gradientUnits="userSpaceOnUse">
<stop stop-color="#3c3c3c"/>
<stop offset="1" stop-color="#3c3c3c" stop-opacity="0"/>
</linearGradient>
</defs>
</svg>
