<svg width="98" height="144" viewBox="0 0 98 144" fill="none" xmlns="http://www.w3.org/2000/svg">
<path d="M89.2037 68.9333C94.4911 77.1583 97.4286 86.7542 97.037 96.5458C96.6453 109.275 91.162 122.004 81.9578 130.621C72.7536 139.238 60.2203 143.938 47.8828 143.546C35.5453 143.938 23.012 139.042 13.8078 130.425C7.73698 124.746 3.23281 117.304 0.882812 109.079L26.7328 102.225C27.712 105.946 29.4745 109.275 32.2161 112.017C36.3286 116.129 42.0078 118.479 47.8828 118.479C53.7578 118.479 59.437 116.129 63.5495 112.017C67.662 107.904 70.012 102.225 70.012 96.5458C70.012 90.6708 67.8578 84.7958 63.5495 80.4875C59.2411 76.1792 53.7578 74.4167 47.8828 74.4167C43.9661 74.4167 40.2453 75.5917 36.9161 77.55L24.9703 56.5958L59.0453 25.0667H6.36615V0H94.4911V26.0458L65.8995 52.6792C75.887 55.6167 83.5245 61.4917 89.2037 68.9333Z" fill="url(#paint0_linear_294_475)" fill-opacity="0.6"/>
<defs>
<linearGradient id="paint0_linear_294_475" x1="47.9746" y1="-65" x2="47.9746" y2="165.031" gradientUnits="userSpaceOnUse">
<stop stop-color="#3c3c3c"/>
<stop offset="1" stop-color="#3c3c3c" stop-opacity="0"/>
</linearGradient>
</defs>
</svg>
