<svg width="59" height="24" viewBox="0 0 59 24" fill="none" xmlns="http://www.w3.org/2000/svg">
<path d="M49.9235 16.0296L47.8024 15.666L45.6707 15.3445C44.9171 15.2228 44.1568 15.1465 43.3941 15.1158C41.3632 15.0629 39.33 15.0789 37.2994 15.1095L31.212 15.2428C28.7156 15.3124 14.2194 15.3736 11.7292 15.5027C10.4825 15.5507 9.24102 15.6421 7.99677 15.7108C6.75712 15.8098 5.51314 15.8855 4.2787 16.0133C3.52178 16.0541 2.76271 16.0274 2.01053 15.9334C1.66344 15.8844 1.33395 15.75 1.05158 15.5423C0.769211 15.3346 0.542788 15.0601 0.392618 14.7434C-0.154402 13.7943 0.124789 12.6769 1.12865 12.3007C1.78067 12.0722 2.46806 11.961 3.15888 11.9725C6.27647 11.9277 9.387 11.6628 12.4673 11.1798C13.3117 10.9827 26.1805 10.9108 27.0458 10.9663C29.719 11.3325 32.3901 11.021 35.0551 11.2352C36.044 11.3111 37.0353 11.348 38.027 11.393C39.0189 11.4282 40.0112 11.4687 41.0003 11.553C44.528 11.8361 48.0425 12.2517 51.5422 12.7618C52.9292 12.9132 54.2346 13.4927 55.2773 14.4197C55.7609 14.8693 55.5949 15.784 54.9551 15.9127C54.0472 16.084 53.1259 16.1747 52.202 16.1837C51.4432 16.1549 50.6867 16.0827 49.9362 15.9675L49.9235 16.0296Z" fill="white"/>
<path d="M42.2631 18.6329C43.5815 17.8651 44.9283 17.128 46.3326 16.4634C47.0782 16.1121 47.8327 15.7756 48.579 15.4091C49.8814 14.7371 51.244 14.1886 52.6489 13.7708C54.1249 13.335 55.6538 13.1044 57.1927 13.0856L56.0166 16.8878C54.7405 16.1363 53.4752 15.3649 52.2289 14.5634C47.8704 11.756 43.6793 8.69102 39.608 5.48226C39.0035 4.97366 38.454 4.40296 37.9686 3.77957C37.7506 3.49734 37.6077 3.16448 37.5531 2.81206C37.4986 2.45963 37.5342 2.09913 37.6567 1.7642C37.9591 0.713977 38.9756 0.151009 39.9342 0.597883C40.5457 0.902944 41.1045 1.30404 41.5892 1.78592C43.8483 3.91296 46.3655 5.74799 49.0818 7.24797C49.8312 7.66527 50.65 8.03963 51.249 8.6283C53.17 10.5059 55.5507 11.7499 57.691 13.3248C57.8245 13.4221 57.958 13.5193 58.0926 13.6171L58.2685 13.7452C58.5835 13.9745 58.8145 14.3008 58.9262 14.674C59.0379 15.0472 59.0241 15.4468 58.8868 15.8114C58.7496 16.176 58.4965 16.4855 58.1664 16.6924C57.8363 16.8994 57.4475 16.9923 57.0595 16.9569C55.4981 16.8147 53.8765 17.1559 52.2725 17.6253C49.1276 18.552 46.0765 20.2668 43.1533 22.1837C42.0154 22.9915 40.6753 23.4668 39.2828 23.5567C38.6143 23.5804 38.0808 22.8198 38.4622 22.2693C39.012 21.4827 39.6439 20.7567 40.3471 20.1036C40.9588 19.5831 41.6094 19.1101 42.2931 18.6886L42.2631 18.6329Z" fill="white"/>
</svg>
