<svg width="100" height="100" viewBox="0 0 100 100" fill="none" xmlns="http://www.w3.org/2000/svg">
<g clip-path="url(#clip0_165_848)">
<path fill-rule="evenodd" clip-rule="evenodd" d="M55.4236 72.2891C55.4236 73.0011 55.2833 73.7061 55.0108 74.3639C54.7382 75.0217 54.3388 75.6193 53.8352 76.1226C53.3317 76.626 52.7339 77.0252 52.076 77.2975C51.4181 77.5697 50.7131 77.7097 50.0012 77.7094C49.2892 77.7097 48.5841 77.5697 47.9262 77.2975C47.2683 77.0252 46.6706 76.626 46.1671 76.1226C45.6635 75.6193 45.264 75.0217 44.9914 74.3639C44.7189 73.7061 44.5786 73.0011 44.5786 72.2891V27.7105C44.5786 26.2724 45.15 24.8932 46.1669 23.8763C47.1838 22.8594 48.563 22.2881 50.0012 22.2881C51.4393 22.2881 52.8185 22.8594 53.8354 23.8763C54.8523 24.8932 55.4236 26.2724 55.4236 27.7105V72.2891Z" fill="#21A3D5"/>
<path fill-rule="evenodd" clip-rule="evenodd" d="M27.7109 99.9998C20.3619 99.9993 13.3142 97.0795 8.11786 91.8828C2.92157 86.6861 0.00244181 79.6381 0.00244183 72.2892C0.00215908 71.5772 0.142067 70.8721 0.414336 70.2142C0.686604 69.5564 1.08584 68.9586 1.58919 68.455C2.09253 67.9515 2.69015 67.552 3.34791 67.2795C4.00567 67.007 4.71064 66.8667 5.42262 66.8667C6.13489 66.8667 6.84023 67.007 7.49825 67.2797C8.15627 67.5523 8.75408 67.9519 9.25763 68.4557C9.76118 68.9594 10.1606 69.5574 10.433 70.2156C10.7054 70.8737 10.8454 71.579 10.8452 72.2913C10.8457 76.764 12.6229 81.0533 15.7858 84.2158C18.9487 87.3783 23.2382 89.1549 27.7109 89.1549C29.9257 89.1552 32.119 88.7193 34.1653 87.8719C36.2117 87.0246 38.0712 85.7825 39.6375 84.2166C41.2039 82.6507 42.4464 80.7915 43.2942 78.7454C44.1421 76.6993 44.5785 74.5062 44.5788 72.2913C44.5785 71.579 44.7186 70.8737 44.991 70.2156C45.2633 69.5574 45.6628 68.9594 46.1663 68.4557C46.6699 67.9519 47.2677 67.5523 47.9257 67.2797C48.5837 67.007 49.2891 66.8667 50.0013 66.8667C51.4395 66.8667 52.8187 67.438 53.8356 68.4549C54.8525 69.4718 55.4238 70.851 55.4238 72.2892C55.4226 79.6385 52.5024 86.6865 47.3054 91.8831C42.1085 97.0796 35.0602 99.9993 27.7109 99.9998Z" fill="#21A3D5"/>
<path fill-rule="evenodd" clip-rule="evenodd" d="M100.002 72.287C100.002 79.6364 97.0821 86.6846 91.8855 91.8815C86.6889 97.0785 79.6409 99.9987 72.2916 99.9998C70.8534 99.9998 69.4742 99.4285 68.4573 98.4116C67.4404 97.3947 66.8691 96.0155 66.8691 94.5774C66.8691 93.8651 67.0095 93.1598 67.2821 92.5018C67.5547 91.8438 67.9544 91.2459 68.4581 90.7424C68.9619 90.2388 69.5599 89.8394 70.218 89.5671C70.8762 89.2947 71.5814 89.1546 72.2937 89.1549C74.5085 89.1546 76.7017 88.7181 78.7478 87.8703C80.794 87.0224 82.6531 85.7799 84.219 84.2135C85.7849 82.6472 87.027 80.7878 87.8743 78.7414C88.7216 76.6951 89.1577 74.5018 89.1574 72.287C89.1568 67.8145 87.3799 63.5252 84.2176 60.3625C81.0552 57.1997 76.7662 55.4224 72.2937 55.4212C71.5805 55.4207 70.8746 55.2796 70.2161 55.0061C69.5575 54.7326 68.9591 54.3321 68.4554 53.8273C67.9516 53.3226 67.5523 52.7235 67.2801 52.0644C67.0079 51.4053 66.8683 50.699 66.8691 49.9858V27.7105C66.8691 26.2724 67.4404 24.8932 68.4573 23.8763C69.4742 22.8594 70.8534 22.2881 72.2916 22.2881C73.0035 22.2881 73.7085 22.4284 74.3663 22.7009C75.024 22.9734 75.6216 23.3729 76.125 23.8764C76.6283 24.38 77.0276 24.9777 77.2998 25.6356C77.5721 26.2935 77.7121 26.9985 77.7119 27.7105V45.108C83.9963 46.3636 89.6516 49.7577 93.7155 54.7129C97.7795 59.6682 100.001 65.8784 100.002 72.287Z" fill="black"/>
<path fill-rule="evenodd" clip-rule="evenodd" d="M72.2916 77.7094C71.5796 77.7097 70.8745 77.5697 70.2166 77.2975C69.5587 77.0252 68.961 76.626 68.4575 76.1226C67.9539 75.6193 67.5545 75.0217 67.282 74.3639C67.0094 73.7062 66.8691 73.0011 66.8691 72.2892C66.8691 70.851 67.4404 69.4718 68.4573 68.4549C69.4742 67.438 70.8534 66.8667 72.2916 66.8667C73.0035 66.8667 73.7085 67.007 74.3663 67.2795C75.024 67.552 75.6216 67.9515 76.125 68.455C76.6283 68.9586 77.0276 69.5564 77.2998 70.2142C77.5721 70.8721 77.7121 71.5772 77.7119 72.2892C77.7119 73.001 77.5717 73.7058 77.2993 74.3634C77.0269 75.021 76.6277 75.6186 76.1243 76.1219C75.621 76.6252 75.0235 77.0245 74.3659 77.2969C73.7082 77.5693 73.0034 77.7094 72.2916 77.7094Z" fill="#ED9200"/>
<path fill-rule="evenodd" clip-rule="evenodd" d="M72.2915 0C79.6408 0 86.6892 2.91951 91.886 8.11628C97.0827 13.313 100.002 20.3614 100.002 27.7107C100.002 28.4227 99.8619 29.1277 99.5893 29.7854C99.3168 30.4432 98.9174 31.0408 98.4138 31.5442C97.9103 32.0475 97.3126 32.4467 96.6547 32.719C95.9969 32.9913 95.2917 33.1313 94.5797 33.131C93.8675 33.131 93.1621 32.9907 92.5041 32.718C91.8461 32.4454 91.2483 32.0458 90.7447 31.542C90.2412 31.0383 89.8419 30.4403 89.5695 29.7821C89.2971 29.124 89.1571 28.4187 89.1573 27.7064C89.1568 23.2337 87.3796 18.9443 84.2167 15.7819C81.0538 12.6194 76.7642 10.8428 72.2915 10.8428C70.0767 10.8425 67.8834 11.2784 65.8371 12.1258C63.7907 12.9731 61.9313 14.2152 60.365 15.7811C58.7986 17.347 57.5561 19.2061 56.7083 21.2523C55.8604 23.2984 55.4239 25.4915 55.4236 27.7064C55.4239 28.4187 55.2838 29.124 55.0114 29.7821C54.739 30.4403 54.3397 31.0383 53.8362 31.542C53.3326 32.0458 52.7347 32.4454 52.0767 32.718C51.4186 32.9907 50.7134 33.131 50.0012 33.131C49.2892 33.1313 48.5841 32.9913 47.9262 32.719C47.2683 32.4467 46.6706 32.0475 46.1671 31.5442C45.6635 31.0408 45.264 30.4432 44.9914 29.7854C44.7189 29.1277 44.5786 28.4227 44.5786 27.7107C44.5792 20.3612 47.4993 13.3128 52.6964 8.11614C57.8935 2.91944 64.942 -2.21718e-08 72.2915 0Z" fill="#21A3D5"/>
<path fill-rule="evenodd" clip-rule="evenodd" d="M27.7107 22.2881C29.1488 22.2881 30.5282 22.8594 31.5451 23.8763C32.562 24.8932 33.1332 26.2724 33.1332 27.7105C33.1332 28.4225 32.993 29.1275 32.7204 29.7853C32.4479 30.4431 32.0485 31.0407 31.5449 31.544C31.0414 32.0474 30.4435 32.4466 29.7857 32.7189C29.1278 32.9911 28.4227 33.1311 27.7107 33.1308C26.2732 33.1308 24.8946 32.5598 23.8781 31.5433C22.8616 30.5268 22.2905 29.1481 22.2905 27.7105C22.2902 26.9985 22.4302 26.2935 22.7024 25.6356C22.9747 24.9777 23.3739 24.38 23.8773 23.8764C24.3806 23.3729 24.9782 22.9734 25.636 22.7009C26.2938 22.4284 26.9987 22.2881 27.7107 22.2881Z" fill="#ED9200"/>
<path fill-rule="evenodd" clip-rule="evenodd" d="M0 27.7107C0 20.3614 2.91958 13.313 8.11634 8.11628C13.3131 2.91951 20.3613 4.27492e-07 27.7107 4.27492e-07C28.4226 -0.000282331 29.1278 0.139707 29.7856 0.411976C30.4435 0.684245 31.0413 1.08346 31.5449 1.58681C32.0484 2.09016 32.4479 2.68777 32.7204 3.34554C32.9929 4.0033 33.1332 4.70831 33.1332 5.42029C33.1332 6.13256 32.9929 6.83785 32.7203 7.49587C32.4476 8.1539 32.048 8.75176 31.5442 9.25531C31.0405 9.75886 30.4424 10.1582 29.7843 10.4306C29.1262 10.703 28.4208 10.843 27.7086 10.8428C25.4937 10.843 23.3006 11.2796 21.2545 12.1274C19.2084 12.9753 17.3493 14.2178 15.7833 15.7841C14.2174 17.3505 12.9753 19.2099 12.1279 21.2563C11.2806 23.3026 10.8447 25.4958 10.845 27.7107C10.8447 29.9254 11.2806 32.1185 12.1279 34.1648C12.9753 36.211 14.2174 38.0703 15.7833 39.6365C17.3493 41.2026 19.2085 42.445 21.2546 43.2926C23.3008 44.1402 25.4938 44.5765 27.7086 44.5765C28.4217 44.577 29.1277 44.7181 29.7863 44.9916C30.4449 45.265 31.0431 45.6656 31.5469 46.1704C32.0506 46.6751 32.45 47.2742 32.7222 47.9333C32.9944 48.5924 33.134 49.2987 33.1332 50.0118V72.2893C33.1332 73.0013 32.9929 73.7063 32.7204 74.3641C32.4479 75.0218 32.0484 75.6194 31.5449 76.1228C31.0413 76.6261 30.4435 77.0254 29.7856 77.2976C29.1278 77.5699 28.4226 77.7099 27.7107 77.7096C26.2731 77.7096 24.8945 77.1385 23.878 76.122C22.8615 75.1055 22.2905 73.7269 22.2905 72.2893V54.8897C16.0059 53.6345 10.3503 50.2405 6.28627 45.2852C2.22225 40.3298 0.000803466 34.1194 0 27.7107Z" fill="black"/>
</g>
<defs>
<clipPath id="clip0_165_848">
<rect width="100" height="100" fill="white"/>
</clipPath>
</defs>
</svg>
