<svg width="36" height="37" viewBox="0 0 36 37" fill="none" xmlns="http://www.w3.org/2000/svg">
<path d="M23.9687 4.17317C22.8298 3.60787 21.615 3.21072 20.3622 2.99413C19.8998 2.92939 19.4375 2.92939 18.9751 2.90628C17.2937 2.77849 15.6035 2.98112 14 3.50273C13.2842 3.75775 12.5988 4.09114 11.9563 4.49683C11.7575 4.63091 11.5494 4.75575 11.3414 4.88059L10.7357 5.2921C10.3195 5.54641 9.91728 5.82845 9.46416 6.05039C9.18211 6.18448 8.96942 5.88856 8.93705 5.42157C8.88724 4.84955 9.09189 4.28463 9.49652 3.87725C9.90743 3.506 10.3431 3.16306 10.8004 2.85079C11.2748 2.55768 11.7658 2.29215 12.2707 2.05552C13.3016 1.599 14.3909 1.28778 15.5073 1.13078C16.8477 0.877911 18.2076 0.743306 19.5716 0.728516C21.0674 0.796788 22.5455 1.0818 23.9594 1.57465C24.8209 1.88068 25.6559 2.25645 26.4562 2.69821C27.6448 3.38042 28.7589 4.18467 29.7807 5.09791C30.6284 5.78738 31.403 6.56206 32.0925 7.40976C32.266 7.59946 32.4208 7.80539 32.5549 8.02471C32.6439 8.20751 32.7062 8.40215 32.7398 8.60267C32.7547 8.75899 32.7358 8.91667 32.6844 9.06504C32.5928 9.29703 32.4269 9.49215 32.2127 9.61988C32.1146 9.69155 32.0128 9.75791 31.9076 9.8187C31.5654 9.97128 31.1308 9.7401 30.6083 9.43493C30.4835 9.2916 30.2893 9.17601 30.1829 9.02805C30.0766 8.88009 29.9194 8.746 29.8038 8.60267L29.4062 8.18191L28.9946 7.76578C28.4231 7.19033 27.8146 6.65283 27.1729 6.15673C26.1876 5.39058 25.1132 4.7463 23.9733 4.2379L23.9687 4.17317Z" fill="white"/>
<path d="M35.4474 9.52626C35.349 10.1815 35.0613 10.7938 34.6198 11.2879C34.3739 11.5487 34.0845 11.7646 33.7644 11.926C33.472 12.0687 33.1606 12.1683 32.8397 12.2219C32.4489 12.3016 32.0496 12.3312 31.6514 12.3097C31.038 12.2409 30.4336 12.1076 29.8482 11.9121C29.2794 11.7364 28.7292 11.5376 28.1929 11.3156C27.6565 11.0937 27.2311 10.955 26.7595 10.7562C26.1211 10.5539 25.5353 10.2128 25.0441 9.75745C24.8916 9.60024 25.095 9.38293 25.3955 9.22572C25.6951 9.04029 26.0562 8.98203 26.3989 9.0639C27.4947 9.49852 28.6645 9.81756 29.8158 10.2152C30.5044 10.4058 31.2225 10.4669 31.9334 10.3955C32.2266 10.3905 32.5146 10.3177 32.775 10.1828C32.875 10.1265 32.9642 10.053 33.0385 9.96552C33.1213 9.8593 33.1926 9.74461 33.2512 9.62336C33.4191 9.21306 33.4979 8.77177 33.4824 8.32873C33.4721 7.557 33.3649 6.78963 33.1633 6.04462C33.0293 5.44817 32.738 4.90719 32.59 4.31074C32.5576 4.17665 32.516 4.04719 32.4975 3.9131C32.4189 3.39987 32.4744 3.20567 32.664 3.02535C32.7032 2.98291 32.7449 2.94277 32.7888 2.90513C32.9322 2.80804 33.1495 2.95137 33.4223 3.25191L34.028 3.94084C34.2153 4.18319 34.3808 4.44157 34.5227 4.713C34.8666 5.23998 35.1183 5.82161 35.2671 6.43301C35.5385 7.44195 35.6138 8.49357 35.4891 9.53089L35.4474 9.52626Z" fill="white"/>
<path d="M4.78146 20.1396C4.76519 21.3985 4.97021 22.6505 5.38716 23.8385C5.56885 24.2612 5.77415 24.6734 6.00211 25.0731C6.37045 25.8145 6.82519 26.5098 7.35685 27.1445C7.62614 27.467 7.91164 27.7756 8.21224 28.0692C8.53127 28.3513 8.84106 28.6472 9.18784 28.8969C9.80182 29.3555 10.4695 29.7374 11.176 30.0343C11.4026 30.1268 11.6384 30.2331 11.8465 30.3302C12.0545 30.4273 12.3088 30.5059 12.5354 30.603C12.9981 30.7879 13.4503 30.9978 13.8901 31.2318C14.1629 31.3937 14.0335 31.7312 13.6636 32.0179C13.2143 32.3784 12.6302 32.5253 12.0638 32.4201C11.5243 32.2885 10.9944 32.1201 10.4778 31.9161C9.962 31.6921 9.46155 31.4341 8.97977 31.144C8.00248 30.5561 7.11879 29.8252 6.35814 28.9755C5.39056 27.9728 4.53763 26.8656 3.8151 25.6741C3.10984 24.3146 2.6482 22.8421 2.45111 21.3232C2.34261 20.4026 2.31939 19.4739 2.38176 18.549C2.4905 17.1642 2.75575 15.7961 3.17241 14.4709C3.4403 13.416 3.79762 12.3858 4.24048 11.3915C4.33973 11.1623 4.45403 10.9399 4.58264 10.7257C4.70366 10.5675 4.84515 10.426 5.00339 10.305C5.13272 10.2227 5.27746 10.1676 5.42877 10.1431C5.68896 10.1052 5.95434 10.1557 6.18244 10.2865C6.29446 10.3335 6.40268 10.3892 6.50609 10.4529C6.81126 10.6703 6.82975 11.165 6.78352 11.7938L6.69567 12.0943C6.67814 12.1952 6.64703 12.2932 6.60319 12.3856C6.51997 12.5613 6.45523 12.7509 6.37663 12.9359C6.22867 13.3058 6.08996 13.6803 5.95125 14.064C5.66682 14.8366 5.42905 15.6256 5.2392 16.4268C4.94216 17.6364 4.80996 18.8806 4.84619 20.1257L4.78146 20.1396Z" fill="white"/>
<path d="M5.00944 7.57558C5.67888 7.30665 6.41449 7.24858 7.11784 7.40913C7.83282 7.61205 8.45435 8.05857 8.87485 8.6714C9.12491 9.0111 9.3373 9.37698 9.50829 9.76259C9.74233 10.3944 9.91271 11.0481 10.0169 11.7138C10.1279 12.3519 10.2111 12.9853 10.2573 13.6187C10.3036 14.1782 10.3683 14.7377 10.396 15.2972C10.4945 16.044 10.3923 16.8037 10.1001 17.498C9.98453 17.72 9.72561 17.5674 9.4898 17.3131C9.22219 17.0712 9.04588 16.7447 8.99044 16.3883C8.91374 15.0903 8.75934 13.7979 8.52807 12.5183C8.37516 11.7435 8.08047 11.0037 7.65882 10.3359C7.5107 10.038 7.29735 9.7772 7.03462 9.57302C6.80219 9.42215 6.52269 9.36132 6.24859 9.40194C5.7636 9.46955 5.2986 9.63979 4.8846 9.9013C4.15671 10.3399 3.48315 10.8629 2.87791 11.4595C2.37856 11.9219 2.01328 12.4767 1.51392 12.9391C1.40296 13.0408 1.30123 13.1471 1.18102 13.2396C0.718649 13.591 0.510583 13.6419 0.256279 13.5586C0.198698 13.545 0.142856 13.5248 0.0898265 13.4985C-0.0581318 13.4153 -0.0118948 13.1518 0.145311 12.7495L0.505959 11.8248C0.639054 11.5243 0.793575 11.2338 0.968329 10.9555C1.30123 10.3635 1.72041 9.82429 2.2121 9.3557C3.01551 8.57418 3.95592 7.94724 4.98632 7.50622L5.00944 7.57558Z" fill="white"/>
<path d="M28.3122 28.8501C29.4794 28.1947 30.513 27.3258 31.3592 26.2886C31.6492 25.8885 31.9178 25.4733 32.1637 25.0448C33.126 23.5206 33.7401 21.8029 33.9623 20.0142C34.0109 19.6092 34.0341 19.2015 34.0317 18.7936C34.0317 18.3867 33.99 17.9798 33.9531 17.5775C33.8328 16.5372 33.6248 15.52 33.56 14.4427C33.56 14.1051 33.9114 14.045 34.3507 14.23C34.6052 14.341 34.8371 14.4977 35.035 14.6923C35.2731 14.9069 35.4461 15.1841 35.5344 15.4922C35.613 15.7789 35.6962 16.0609 35.7655 16.3476C35.8349 16.6343 35.8858 16.9302 35.9274 17.2261C35.969 17.522 35.9782 17.818 35.9967 18.1139C36.0129 18.4126 36.0129 18.7121 35.9967 19.0109C36 20.216 35.8143 21.4142 35.4465 22.5619C35.0496 23.9799 34.4992 25.3505 33.8051 26.6492C32.9539 28.0351 31.8571 29.2541 30.5685 30.2464C29.7815 30.8499 28.9283 31.3618 28.0255 31.7723C27.3474 32.0864 26.6455 32.3461 25.9263 32.549C25.2097 32.7439 24.4826 32.8983 23.7486 33.0114C22.6093 33.2197 21.4528 33.3188 20.2947 33.3073C20.035 33.3105 19.7754 33.2951 19.5179 33.2611C19.3177 33.212 19.1226 33.1439 18.9353 33.0576C18.5623 32.8293 18.336 32.4223 18.3388 31.985C18.3298 31.8618 18.3298 31.7382 18.3388 31.6151C18.3797 31.4156 18.509 31.2454 18.6902 31.1527C18.9396 30.9964 19.2107 30.878 19.4948 30.8013C19.9328 30.7399 20.3749 30.7121 20.8171 30.7181C21.2471 30.7181 21.6771 30.6903 22.1025 30.6533C22.9649 30.5988 23.8215 30.4751 24.6641 30.2834C25.2932 30.1319 25.9111 29.9372 26.5135 29.7008C27.1205 29.452 27.7052 29.1519 28.2613 28.8039L28.3122 28.8501Z" fill="white"/>
<path d="M17.2576 35.3876C16.8164 35.1217 16.4188 34.7896 16.0786 34.4028C15.6754 33.9586 15.3879 33.4218 15.2417 32.84C15.1278 32.3846 15.1278 31.9082 15.2417 31.4528C15.4461 30.8227 15.798 30.2504 16.2682 29.7837C16.6566 29.3745 17.0688 28.9885 17.5027 28.6278L18.5939 27.703C19.0301 27.2628 19.5485 26.9125 20.1197 26.6719C20.3093 26.6072 20.4387 26.8708 20.4711 27.2037C20.5325 27.5461 20.4432 27.8983 20.226 28.17C19.3892 28.9514 18.5939 29.7652 17.7986 30.5374C17.57 30.7609 17.3864 31.0261 17.2576 31.3188C17.1585 31.5389 17.102 31.7758 17.0912 32.0169C17.0814 32.2413 17.1465 32.4625 17.2761 32.6458C17.4546 32.8924 17.6662 33.1133 17.9049 33.3023C18.2607 33.5936 18.6485 33.8433 19.0609 34.0467C19.7203 34.3769 20.4072 34.6492 21.1138 34.8605C21.664 35.0547 22.2466 35.0871 22.8014 35.2813C22.9263 35.3275 23.0465 35.3645 23.1667 35.42C23.6291 35.6373 23.74 35.7991 23.7678 36.0534C23.7678 36.1135 23.7678 36.1736 23.7678 36.2245C23.7678 36.3956 23.5274 36.4881 23.1575 36.5528L22.3113 36.6915C22.0275 36.7254 21.7415 36.7362 21.4559 36.7239C20.8745 36.7399 20.2942 36.665 19.7359 36.5019C18.856 36.2447 18.0088 35.8863 17.2114 35.4338L17.2576 35.3876Z" fill="white"/>
</svg>
