<svg width="41" height="78" viewBox="0 0 41 78" fill="none" xmlns="http://www.w3.org/2000/svg">
<path d="M33.5 3.79261C36.2809 5.89228 38.3535 8.79183 39.44 12.1026C40.4208 15.17 40.6505 18.428 40.11 21.6026C39.8001 23.7737 39.198 25.8929 38.32 27.9026C36.707 31.1918 34.5576 34.1895 31.96 36.7726C29.5273 39.1748 26.9705 41.4479 24.3 43.5826C22.0524 45.4217 19.9465 47.4274 18 49.5826C16.76 50.9126 15.76 52.3926 14.66 53.8426C13.56 55.2926 12.54 56.7626 11.47 58.2926C10.82 59.2126 10.06 58.7326 9.65 57.3926C9.16384 55.495 9.42517 53.4831 10.38 51.7726C12.5007 48.2822 15.1181 45.1191 18.15 42.3826C21.03 39.6926 23.96 37.3026 26.67 34.8126C28.2851 33.3527 29.6826 31.6689 30.82 29.8126C31.869 27.979 32.6821 26.0201 33.24 23.9826C33.8499 21.8727 34.01 19.6583 33.71 17.4826C33.567 16.4481 33.281 15.4384 32.86 14.4826C32.4598 13.5416 31.9167 12.668 31.25 11.8926C30.4247 10.8765 29.4423 9.99877 28.34 9.29261C27.1926 8.61366 25.9432 8.12405 24.64 7.84261C20.4353 6.96532 16.0553 7.88628 12.56 10.3826C9.99776 12.431 8.1381 15.2275 7.24 18.3826C6.99 19.0426 6.93 19.7526 6.71 20.3826C5.98 22.9026 5.5 23.6726 3.71 24.1326C3.30959 24.2646 2.90233 24.3747 2.49 24.4626C1.81167 24.5912 1.12413 24.2892 0.76 23.7026C0.513168 23.3156 0.32449 22.8944 0.2 22.4526C0.0791343 21.8835 0.0121716 21.3043 0 20.7226C0.0769773 16.6369 1.38767 12.6699 3.76 9.34261C6.31415 5.71191 9.91403 2.94572 14.08 1.41261C20.5596 -1.07315 27.8441 -0.244683 33.6 3.63261L33.5 3.79261Z" fill="white"/>
<path d="M12.2401 69.5323C12.4245 70.034 12.4995 70.5693 12.4601 71.1023L12.4001 71.9223C12.4001 72.1923 12.2801 72.4723 12.2201 72.7423L12.0201 73.5323C11.8937 73.7897 11.7535 74.0401 11.6001 74.2823C11.3347 74.7759 10.9977 75.2274 10.6001 75.6223C10.3301 75.9023 10.0901 76.2223 9.83008 76.4923C9.57008 76.7623 9.22008 76.9023 8.91008 77.0723C7.82288 77.4899 6.60081 77.3558 5.63008 76.7123C5.42008 76.5423 5.22008 76.3423 5.02008 76.1623C4.82008 75.9823 4.70008 75.7223 4.54008 75.5123C4.32851 75.1046 4.1609 74.6755 4.04008 74.2323C3.82751 73.5322 3.69007 72.8115 3.63008 72.0823C3.43815 71.1191 3.71249 70.1218 4.37008 69.3923C4.59008 69.1723 5.14008 69.5923 5.67008 70.0623C6.20008 70.5323 6.79008 70.9823 6.83008 71.2023C6.86987 71.6331 6.95364 72.0586 7.08008 72.4723C7.19008 72.8923 7.37008 73.2323 7.26008 73.4723C7.25433 73.5517 7.28268 73.6299 7.33803 73.6871C7.39338 73.7444 7.4705 73.7754 7.55008 73.7723C7.69903 73.743 7.83727 73.6739 7.95008 73.5723C8.28966 73.3316 8.53109 72.9766 8.63008 72.5723C8.77544 71.9493 8.41891 71.3188 7.81008 71.1223C7.62808 71.0466 7.41789 71.1043 7.30008 71.2623C7.07008 71.4823 7.07008 71.9723 7.12008 72.4623C7.13348 72.5652 7.13348 72.6694 7.12008 72.7723C6.97008 73.1423 6.55008 73.1523 5.28008 72.9823L4.42008 72.8723C3.58377 72.8443 2.83573 72.3444 2.49008 71.5823C2.3892 71.3309 2.33498 71.0632 2.33008 70.7923C2.34423 70.5137 2.37765 70.2363 2.43008 69.9623C2.56347 69.3578 2.80392 68.7821 3.14008 68.2623C3.36072 67.9726 3.6013 67.6986 3.86008 67.4423C4.14514 67.1492 4.48488 66.9148 4.86008 66.7523C5.25046 66.5353 5.67214 66.3801 6.11008 66.2923C6.5264 66.1904 6.95183 66.1301 7.38008 66.1123C9.80008 66.1123 11.3801 67.7323 12.3801 69.4523L12.2401 69.5323Z" fill="white"/>
</svg>
