<svg width="36" height="33" viewBox="0 0 36 33" fill="none" xmlns="http://www.w3.org/2000/svg">
<path d="M2.0949 32.6521C12.9959 29.4152 23.5386 24.349 34.7738 22.4118C36.9191 22.039 36.0136 18.7286 33.8731 19.1013C22.6379 21.063 12.0807 26.1048 1.19415 29.3368C-0.902763 29.9547 -0.00685322 33.2701 2.0949 32.6521Z" fill="white"/>
<path d="M2.24484 8.01797C2.88003 9.24049 3.97442 10.1526 5.28124 10.5486C5.95871 10.7553 6.69359 10.5879 7.21835 10.1072C7.73961 9.47943 7.92088 8.63133 7.70262 7.84141C7.41566 6.59789 6.72083 5.48965 5.73162 4.6977C5.25265 4.21511 4.61455 3.92867 3.9398 3.89338C3.08345 3.94965 2.39404 4.62705 2.31264 5.49221C2.16033 6.14288 2.53022 6.80218 3.16012 7.00276C3.72672 7.1597 4.55967 6.80659 4.64684 6.14449C4.67477 6.0536 4.69264 5.95984 4.70011 5.86494C4.72917 5.77176 4.70011 5.79628 4.66622 5.94832L4.37565 6.23768C4.2356 6.31645 4.07478 6.34902 3.91559 6.33086C3.82842 6.33086 3.88653 6.40443 3.76546 6.29163C3.81873 6.33576 4.19647 6.59079 4.02213 6.44366C4.17113 6.57169 4.31338 6.70757 4.44829 6.85073C4.58873 6.99786 4.71949 7.14989 4.8454 7.30683C5.08753 7.606 4.72917 7.13028 4.93741 7.42944L5.06332 7.606C5.14565 7.72861 5.2086 7.88065 5.29577 7.99835C5.38294 8.11606 5.23766 7.77765 5.27156 7.9346C5.30546 8.09154 5.34904 8.20924 5.37326 8.34656C5.41684 8.6065 5.37326 8.11115 5.37326 8.4986C5.37326 8.60159 5.43621 8.73401 5.37326 8.65064C5.37326 8.57217 5.37326 8.56236 5.37326 8.62611C5.37326 8.68987 5.37326 8.68006 5.41684 8.51331C5.49528 8.39032 5.60594 8.29183 5.73646 8.22886C5.9108 8.14058 5.56697 8.22886 5.92533 8.18472C5.71709 8.18472 6.10936 8.23867 5.96407 8.18472L5.75099 8.13077C5.53307 8.06701 5.84785 8.18472 5.71709 8.13077C5.11654 7.8575 4.62738 7.3829 4.33207 6.78697C3.62018 5.38431 1.52811 6.62512 2.24484 8.02778V8.01797Z" fill="white"/>
<path d="M19.5579 3.56449C19.6187 4.25494 19.4481 4.946 19.0736 5.52624C19.156 5.42325 18.9622 5.63904 18.9526 5.65866C19.0252 5.52624 18.9526 5.62924 19.03 5.61452C19.3012 5.55567 19.3981 5.67337 19.6402 5.71261L19.679 5.77637C19.6388 5.71708 19.6032 5.65478 19.5724 5.59C19.5392 5.53237 19.5117 5.47159 19.4901 5.40854C19.4465 5.30064 19.4368 5.16822 19.3836 5.06523C19.3303 4.96224 19.3836 5.31045 19.3836 5.17313C19.4126 4.89358 19.3836 4.60422 19.3836 4.32467L19.4368 4.05983C19.4368 4.14811 19.4368 4.18735 19.4368 4.05983C19.4707 3.87346 19.5046 3.6871 19.5531 3.50073C19.5903 3.34584 19.6372 3.1935 19.6935 3.04462C19.6257 3.2457 19.7468 2.89259 19.6935 3.04462C19.6935 2.99558 19.7613 2.95144 19.7807 2.90239C19.7226 3.08386 19.7419 2.98087 19.6644 3.03481C19.4556 3.18147 19.195 3.23139 18.9477 3.17214C18.7976 3.17214 18.6814 2.97106 18.8993 3.23589C19.3766 3.70558 20.1363 3.70558 20.6136 3.23589C21.0724 2.75042 21.0724 1.98521 20.6136 1.49974C20.1888 0.896611 19.4482 0.610494 18.7346 0.77389C18.0938 1.02913 17.6081 1.57369 17.4223 2.24521C16.9846 3.33186 16.8489 4.51911 17.03 5.67828C17.3351 7.19374 18.725 8.77295 20.3037 7.72341C21.5241 6.91418 22.1004 5.00638 21.9793 3.59882C21.9664 2.92714 21.4318 2.38577 20.7686 2.37272C20.1021 2.37806 19.5632 2.92389 19.5579 3.59882V3.56449Z" fill="white"/>
</svg>
