<svg width="180" height="77" viewBox="0 0 180 77" fill="none" xmlns="http://www.w3.org/2000/svg">
<path d="M45.2874 6.59656C39.1076 6.38024 34.2239 8.0811 29.7809 10.1281C25.1409 12.2643 20.6305 14.479 16.7423 16.9938C8.82057 22.1315 4.15468 27.9588 2.392 34.4675C0.613766 41.0168 1.4639 47.6554 6.56531 53.7693C11.6667 59.8832 20.3713 65.0075 30.797 68.7823C51.7418 76.3538 79.556 78.9713 104.125 75.4669C117.003 73.6308 129.103 70.3642 139.928 66.3162C148.394 63.1497 156.393 59.2991 160.816 54.2831C165.481 48.9695 166.337 42.5257 162.495 36.9986C158.4 31.1064 149.882 26.4662 140.534 22.6967C130.555 18.6757 119.564 15.4903 107.422 13.6488C94.9794 11.7559 81.9097 11.2151 69.011 10.8879C50.6014 10.4228 30.0194 12.0669 15.2854 18.262C0.204136 24.6058 -2.93757 35.5681 4.03021 44.6998C10.998 53.8315 26.3696 60.4321 42.6433 64.9128C58.917 69.3935 77.3786 72.3139 95.8245 72.9115C106.354 73.2522 116.904 72.3572 126.972 70.7672C137.781 69.0582 148.373 66.5434 157.389 62.9605C176.301 55.4404 182.341 43.0746 178.313 31.201C174.513 20.0088 162.76 8.82202 142.339 3.91141C132.488 1.53993 121.658 0.58268 110.89 0.201404C98.4407 -0.241635 85.9353 0.0468074 73.6095 1.0613C50.7983 2.95416 24.6951 7.40508 12.0971 18.2755C1.32401 27.5667 -1.03494 40.1326 5.16556 50.4541C17.7013 71.3269 67.1082 75.6021 103.362 75.1532C122.477 74.9125 144.215 73.0359 157.964 65.4428C173.704 56.7519 173.077 43.3748 166.84 32.6207C165.255 29.8763 163.211 27.2097 160.733 24.6517C158.291 22.1396 155.03 19.9818 151.644 17.8131C150.67 17.1884 148.975 18.0835 149.944 18.7C153.298 20.8444 155.766 23.4349 158.104 25.901C160.512 28.4619 162.468 31.132 163.947 33.8781C166.959 39.4241 168.25 45.3866 166.607 51.1139C165.134 56.2381 161.049 61.0649 153.786 64.6667C147.046 68.0009 138.409 70.056 129.528 71.2972C111.818 73.766 92.4443 73.5524 74.3871 72.3355C56.527 71.1322 37.6093 68.4173 23.8448 62.06C8.95015 55.1808 4.23753 44.8566 5.91726 34.8029C6.80897 29.4785 9.63443 24.1488 14.8447 19.5248C20.3816 14.6115 28.407 11.2746 38.0603 8.70845C59.5339 3.01636 84.7974 1.27222 108.64 1.92931C118.796 2.19972 129.092 2.96498 138.564 4.98763C147.957 6.98521 156.028 10.3682 161.79 14.7223C174.036 23.9703 179.453 36.7904 173.242 47.6878C170.22 53.0282 164.053 57.7374 155.616 61.1487C147.082 64.61 136.952 67.0436 126.682 68.7066C117.236 70.2344 107.339 71.1755 97.4264 70.9402C89.1518 70.7126 80.9472 70.0264 72.951 68.8932C55.5938 66.5055 38.3973 62.4305 24.8402 56.203C11.8793 50.254 3.06592 42.1417 4.54865 32.9235C5.25136 28.2562 9.31065 23.8999 15.9127 20.7281C22.3517 17.6454 30.6311 15.7526 39.0091 14.5682C47.5863 13.4057 56.4351 12.8804 65.2937 13.0079C76.9741 13.135 88.9241 13.6596 100.324 15.0252C112.111 16.4533 123.231 19.0956 133.033 22.7967C142.064 26.1525 150.742 30.2194 155.787 35.4599C160.603 40.4679 160.971 46.5656 157.187 51.7899C153.744 56.522 146.642 60.2645 138.979 63.2282C118.89 71.0024 93.7559 75.9996 68.5599 73.62C45.8524 71.4756 23.8396 65.4293 12.6881 54.4723C1.49504 43.4748 5.10853 28.8376 19.0389 18.9623C22.4658 16.5287 26.5355 14.4168 30.7089 12.34C34.8823 10.2633 39.1801 8.20278 45.3028 8.3461C47.4699 8.39747 47.4388 6.67228 45.3028 6.59656H45.2874Z" fill="white" fill-opacity="0.3"/>
</svg>
