<svg width="52" height="46" viewBox="0 0 52 46" fill="none" xmlns="http://www.w3.org/2000/svg">
<path d="M44.0169 38.6454C42.275 40.3339 40.2684 41.7257 38.0767 42.7656C35.9363 43.766 33.6795 44.4956 31.3585 44.9374C29.7059 45.2883 28.0265 45.4987 26.3384 45.5666C20.4005 45.7032 14.5543 44.084 9.53273 40.9118C7.30769 39.5002 5.31902 37.7467 3.63991 35.7159C2.55034 34.4084 1.64022 32.9613 0.933676 31.413C0.313407 29.831 -0.00333105 28.1463 2.64145e-05 26.447C2.64145e-05 25.3984 0.723943 25.4998 1.62377 26.1696C2.76625 27.0522 3.75005 28.123 4.53296 29.3359C5.68154 31.8508 7.38104 34.0752 9.50566 35.8444C11.727 37.7157 14.2413 39.2084 16.9478 40.2623C20.2832 41.6155 24.1734 41.7778 27.8269 41.4531C31.8688 41.1876 35.7573 39.8032 39.0577 37.4546C41.0597 35.975 42.7478 34.1122 44.0236 31.9745C45.9997 28.6422 47.1998 24.9077 47.535 21.0481C47.7413 18.0692 47.541 15.0762 46.9396 12.1514C46.8178 11.5086 46.6487 10.8862 46.5269 10.2435C46.2292 7.83492 46.3036 7.03658 47.305 6.23824C47.4882 6.05723 47.6825 5.88776 47.8868 5.73083C48.4551 5.32489 49.6526 6.11646 50.3427 7.97023C50.8942 9.3487 51.2869 10.7855 51.5131 12.2528C51.7721 13.7491 51.9281 15.2614 51.98 16.779C52.0875 19.9141 51.7619 23.0491 51.0125 26.0952C49.9075 30.8568 47.513 35.2222 44.0913 38.713L44.0169 38.6454Z" fill="white"/>
<path d="M13.0859 7.84861C13.3363 10.0407 14.6961 12.8078 16.8002 13.7753C17.7068 14.1947 19.0532 13.9309 19.2832 12.7672C19.5947 10.7161 19.1756 8.62081 18.0992 6.8473C17.6675 5.99769 17.0274 5.27144 16.2387 4.73644C15.662 4.43458 14.9776 4.41856 14.3875 4.69309C13.7973 4.96762 13.3687 5.50139 13.228 6.13692C12.6191 8.22748 15.8801 9.12054 16.489 7.02997L16.5634 6.75935L15.7854 7.77419L15.3862 7.8892L14.209 7.39531C15.3524 8.30867 16.3267 10.3789 16.0357 11.8674L18.5187 10.8525C17.4429 10.1884 16.7038 9.09451 16.489 7.84861C16.4608 6.9264 15.7198 6.18539 14.7976 6.15721C13.8666 6.16457 13.1136 6.91754 13.1062 7.84861H13.0859Z" fill="white"/>
<path d="M23.3296 3.3219C23.5867 5.5613 24.9939 8.55169 27.1454 9.55976C28.052 9.97923 29.4051 9.7086 29.6284 8.54492C29.9297 6.40819 29.4827 4.23299 28.3632 2.38825C27.9305 1.52389 27.2829 0.785332 26.4824 0.243558C25.9123 -0.058697 25.2346 -0.0807754 24.6461 0.183734C24.0575 0.448243 23.6241 0.969697 23.4717 1.59667C22.8628 3.694 26.1306 4.58706 26.7327 2.4965L26.8139 2.22587L26.0358 3.24071L25.6299 3.35572L24.4324 2.86184C25.6231 3.81578 26.665 6.09578 26.3674 7.63834L28.8503 6.63026C27.822 6.14991 26.8206 4.42469 26.7124 3.31513C26.4688 1.17721 23.0793 1.15015 23.3296 3.31513V3.3219Z" fill="white"/>
</svg>
