<svg width="333" height="317" viewBox="0 0 333 317" fill="none" xmlns="http://www.w3.org/2000/svg">
<path fill-rule="evenodd" clip-rule="evenodd" d="M332.468 159.109C294.292 159.109 308.003 317 282.099 317C256.195 317 267.037 159.109 238.229 159.109H332.468Z" fill="url(#paint0_linear_165_910)"/>
<path fill-rule="evenodd" clip-rule="evenodd" d="M18.6875 159.109C35.0699 159.109 35.3237 214.124 54.6015 214.124C73.8799 214.124 76.0695 159.109 87.8869 159.109H18.6875Z" fill="url(#paint1_linear_165_910)"/>
<path fill-rule="evenodd" clip-rule="evenodd" d="M225.407 159.11C193.386 159.11 190.63 52.3838 152.948 52.3838C115.266 52.3838 110.986 159.11 87.8867 159.11H225.407Z" fill="url(#paint2_linear_165_910)"/>
<path fill-rule="evenodd" clip-rule="evenodd" d="M79.722 159.109C47.0316 159.109 57.294 66.2632 35.112 66.2632C12.9301 66.2632 24.6698 159.109 0 159.109H79.722Z" fill="url(#paint3_linear_165_910)"/>
<path fill-rule="evenodd" clip-rule="evenodd" d="M138.932 159.109C120.586 159.109 127.424 253.98 110.929 253.98C94.4336 253.98 104.054 159.109 79.7441 159.109H138.932Z" fill="url(#paint4_linear_165_910)"/>
<path fill-rule="evenodd" clip-rule="evenodd" d="M238.229 159.11C199.974 159.11 209.601 0 183.644 0C157.686 0 172.662 159.11 143.793 159.11H238.229Z" fill="url(#paint5_linear_165_910)"/>
<path fill-rule="evenodd" clip-rule="evenodd" d="M212.414 159.109C196.699 159.109 193.788 213.159 168.151 213.159C142.514 213.159 142.036 159.109 120.25 159.109H212.414Z" fill="url(#paint6_linear_165_910)"/>
<path fill-rule="evenodd" clip-rule="evenodd" d="M120.739 159.109C98.9537 159.109 97.986 129.456 72.3502 129.456C46.7138 129.456 43.8021 159.109 28.0874 159.109H120.739Z" fill="url(#paint7_linear_165_910)"/>
<path fill-rule="evenodd" clip-rule="evenodd" d="M212.414 159.11C228.129 159.11 231.04 72.2363 256.677 72.2363C282.313 72.2363 282.792 159.11 304.577 159.11H212.414Z" fill="url(#paint8_linear_165_910)"/>
<path fill-rule="evenodd" clip-rule="evenodd" d="M117.361 159.11C100.36 159.11 105.685 93.4194 94.1493 93.4194C82.6134 93.4194 88.7188 159.11 75.8892 159.11H117.361Z" fill="url(#paint9_linear_165_910)"/>
<path fill-rule="evenodd" clip-rule="evenodd" d="M110.202 159.109C141.176 159.109 130.61 201.488 151.627 201.488C172.645 201.488 161.521 159.109 184.896 159.109H110.202Z" fill="url(#paint10_linear_165_910)"/>
<path fill-rule="evenodd" clip-rule="evenodd" d="M258.496 159.11C228.324 159.11 237.775 35.0166 217.302 35.0166C196.829 35.0166 207.665 159.11 184.896 159.11H258.496Z" fill="url(#paint11_linear_165_910)"/>
<path fill-rule="evenodd" clip-rule="evenodd" d="M258.496 159.109C288.667 159.109 279.216 283.203 299.689 283.203C320.162 283.203 309.326 159.109 332.095 159.109H258.496Z" fill="url(#paint12_linear_165_910)"/>
<path fill-rule="evenodd" clip-rule="evenodd" d="M117.399 159.109C85.3524 159.109 97.7208 177.027 75.9757 177.027C54.2306 177.027 64.4805 159.109 40.2964 159.109H117.399Z" fill="url(#paint13_linear_165_910)"/>
<defs>
<linearGradient id="paint0_linear_165_910" x1="285.348" y1="317" x2="285.348" y2="159.109" gradientUnits="userSpaceOnUse">
<stop stop-color="#CCF1FF" stop-opacity="0.05"/>
<stop offset="1" stop-color="#85DAF8" stop-opacity="0.8"/>
</linearGradient>
<linearGradient id="paint1_linear_165_910" x1="53.2871" y1="214.124" x2="53.2871" y2="159.109" gradientUnits="userSpaceOnUse">
<stop stop-color="#439DD3" stop-opacity="0.05"/>
<stop offset="1" stop-color="#439DD3" stop-opacity="0.8"/>
</linearGradient>
<linearGradient id="paint2_linear_165_910" x1="156.647" y1="52.384" x2="156.647" y2="159.11" gradientUnits="userSpaceOnUse">
<stop stop-color="#439DD3" stop-opacity="0.05"/>
<stop offset="1" stop-color="#439DD3" stop-opacity="0.8"/>
</linearGradient>
<linearGradient id="paint3_linear_165_910" x1="39.8612" y1="66.2633" x2="39.8612" y2="159.109" gradientUnits="userSpaceOnUse">
<stop stop-color="#CCF1FF" stop-opacity="0.05"/>
<stop offset="1" stop-color="#85DAF8" stop-opacity="0.8"/>
</linearGradient>
<linearGradient id="paint4_linear_165_910" x1="109.338" y1="253.981" x2="109.338" y2="159.109" gradientUnits="userSpaceOnUse">
<stop stop-color="#CCF1FF" stop-opacity="0.05"/>
<stop offset="1" stop-color="#85DAF8" stop-opacity="0.8"/>
</linearGradient>
<linearGradient id="paint5_linear_165_910" x1="191.011" y1="0.000108666" x2="191.011" y2="159.11" gradientUnits="userSpaceOnUse">
<stop stop-color="#CCF1FF" stop-opacity="0.05"/>
<stop offset="1" stop-color="#85DAF8" stop-opacity="0.8"/>
</linearGradient>
<linearGradient id="paint6_linear_165_910" x1="166.332" y1="213.159" x2="166.332" y2="159.109" gradientUnits="userSpaceOnUse">
<stop stop-color="#439DD3" stop-opacity="0.05"/>
<stop offset="1" stop-color="#439DD3" stop-opacity="0.8"/>
</linearGradient>
<linearGradient id="paint7_linear_165_910" x1="74.4132" y1="129.456" x2="74.4132" y2="159.109" gradientUnits="userSpaceOnUse">
<stop stop-color="#439DD3" stop-opacity="0.05"/>
<stop offset="1" stop-color="#439DD3" stop-opacity="0.8"/>
</linearGradient>
<linearGradient id="paint8_linear_165_910" x1="258.496" y1="72.2365" x2="258.496" y2="159.11" gradientUnits="userSpaceOnUse">
<stop stop-color="#439DD3" stop-opacity="0.05"/>
<stop offset="1" stop-color="#439DD3" stop-opacity="0.8"/>
</linearGradient>
<linearGradient id="paint9_linear_165_910" x1="75.8895" y1="126.265" x2="117.361" y2="126.265" gradientUnits="userSpaceOnUse">
<stop stop-color="#CCF1FF" stop-opacity="0.05"/>
<stop offset="1" stop-color="#CCF1FF" stop-opacity="0.8"/>
</linearGradient>
<linearGradient id="paint10_linear_165_910" x1="147.549" y1="201.488" x2="147.549" y2="159.109" gradientUnits="userSpaceOnUse">
<stop stop-color="#CCF1FF" stop-opacity="0.05"/>
<stop offset="1" stop-color="#CCF1FF" stop-opacity="0.8"/>
</linearGradient>
<linearGradient id="paint11_linear_165_910" x1="221.696" y1="35.0168" x2="221.696" y2="159.11" gradientUnits="userSpaceOnUse">
<stop stop-color="#CCF1FF" stop-opacity="0.05"/>
<stop offset="1" stop-color="#CCF1FF" stop-opacity="0.8"/>
</linearGradient>
<linearGradient id="paint12_linear_165_910" x1="295.295" y1="283.203" x2="295.295" y2="159.109" gradientUnits="userSpaceOnUse">
<stop stop-color="#CCF1FF" stop-opacity="0.05"/>
<stop offset="1" stop-color="#CCF1FF" stop-opacity="0.8"/>
</linearGradient>
<linearGradient id="paint13_linear_165_910" x1="78.8474" y1="177.027" x2="78.8474" y2="159.109" gradientUnits="userSpaceOnUse">
<stop stop-color="#CCF1FF" stop-opacity="0.05"/>
<stop offset="1" stop-color="#CCF1FF" stop-opacity="0.8"/>
</linearGradient>
</defs>
</svg>
